<?xml version="1.0" encoding="utf-8"?>
<!-- Generator: Adobe Illustrator 16.0.0, SVG Export Plug-In . SVG Version: 6.00 Build 0)  -->
<!DOCTYPE svg PUBLIC "-//W3C//DTD SVG 1.1//EN" "http://www.w3.org/Graphics/SVG/1.1/DTD/svg11.dtd">
<svg version="1.1" id="Layer_1" xmlns="http://www.w3.org/2000/svg" xmlns:xlink="http://www.w3.org/1999/xlink" x="0px" y="0px"
	 width="193.358px" height="68.65px" viewBox="0 0 193.358 68.65" enable-background="new 0 0 193.358 68.65" xml:space="preserve">
<path fill="#FFFFFF" d="M57.724,14.434L34.451,0.999c-2.306-1.331-5.146-1.331-7.452,0L3.726,14.434C1.421,15.766,0,18.226,0,20.888
	v26.873c0,2.662,1.421,5.122,3.726,6.453l23.273,13.438c2.306,1.331,5.146,1.331,7.452,0l23.273-13.438
	c2.305-1.331,3.725-3.791,3.725-6.453V20.888C61.449,18.226,60.029,15.766,57.724,14.434 M55.488,47.059
	c0,0.799-0.426,1.537-1.118,1.937l-5.445,3.144c-0.692,0.399-1.544,0.399-2.236,0l-5.446-3.144
	c-0.691-0.399-1.117-1.138-1.117-1.937v-6.288c0-0.799,0.426-1.536,1.117-1.936l5.446-3.144c0.692-0.399,1.544-0.399,2.236,0
	l5.445,3.144c0.692,0.399,1.118,1.137,1.118,1.936V47.059z"/>
<path fill="#FFFFFF" d="M91.893,22.838c0.299,0,0.531,0.232,0.531,0.531v22.159c0,0.298-0.232,0.53-0.531,0.53h-1.492
	c-0.332,0-0.598-0.199-0.698-0.497l-0.298-0.797c-1.327,1.028-2.953,1.56-4.578,1.56c-6.17,0-8.094-5.009-8.094-8.559
	c0-3.483,1.891-8.558,8.26-8.558c1.327,0,2.521,0.265,3.516,0.63V23.37c0-0.299,0.232-0.531,0.531-0.531H91.893z M88.509,33.52
	c-0.862-0.597-2.156-0.929-3.251-0.929c-3.881,0-4.644,3.648-4.644,5.175c0,1.294,0.531,5.175,4.379,5.175
	c1.758,0,2.886-0.829,3.516-1.824V33.52z"/>
<path fill="#FFFFFF" d="M113.783,37.733c0,3.583-1.891,8.559-8.26,8.559s-8.261-4.976-8.261-8.559c0-3.483,1.892-8.559,8.261-8.559
	S113.783,34.25,113.783,37.733 M109.901,37.733c0-1.294-0.563-5.175-4.378-5.175c-3.85,0-4.379,3.881-4.379,5.175
	s0.529,5.175,4.379,5.175C109.338,42.908,109.901,39.027,109.901,37.733"/>
<path fill="#FFFFFF" d="M132.031,42.775c0.23,0.199,0.23,0.531,0.033,0.764c-1.594,1.658-3.483,2.753-6.203,2.753
	c-6.369,0-8.36-4.976-8.36-8.459c0-3.683,1.692-8.625,8.294-8.625c2.588,0,4.478,1.095,6.037,2.654c0.199,0.198,0.199,0.53,0,0.763
	l-1.527,1.725c-0.197,0.232-0.529,0.232-0.729,0.033c-1.027-0.929-2.455-1.592-3.781-1.592c-2.82,0-4.379,2.487-4.379,5.042
	c0,3.118,2.123,4.744,4.412,4.744c1.096,0,2.421-0.465,3.549-1.46c0.232-0.199,0.564-0.199,0.797,0L132.031,42.775z"/>
<path fill="#FFFFFF" d="M140.374,38.529v7c0,0.298-0.231,0.53-0.531,0.53h-2.853c-0.299,0-0.531-0.232-0.531-0.53V23.37
	c0-0.299,0.232-0.531,0.531-0.531h2.853c0.3,0,0.531,0.232,0.531,0.531v13.169l6.004-6.668c0.231-0.265,0.563-0.397,0.896-0.397
	h3.582c0.201,0,0.299,0.232,0.166,0.397l-6.867,7.497l7.398,8.294c0.133,0.165,0.033,0.397-0.166,0.397h-3.648
	c-0.332,0-0.664-0.133-0.896-0.397L140.374,38.529z"/>
<path fill="#FFFFFF" d="M171.015,37.766c0,3.55-1.924,8.559-8.094,8.559c-1.626,0-3.251-0.531-4.578-1.56l-0.299,0.797
	c-0.099,0.298-0.364,0.497-0.696,0.497h-1.492c-0.299,0-0.531-0.232-0.531-0.53V23.37c0-0.299,0.232-0.531,0.531-0.531h2.853
	c0.298,0,0.53,0.232,0.53,0.531v6.469c0.996-0.365,2.189-0.631,3.517-0.631C169.124,29.208,171.015,34.283,171.015,37.766
	 M167.134,37.766c0-1.526-0.765-5.175-4.646-5.175c-1.094,0-2.388,0.332-3.25,0.929v7.597c0.629,0.995,1.758,1.824,3.517,1.824
	C166.604,42.941,167.134,39.06,167.134,37.766"/>
<path fill="#FFFFFF" d="M177.47,22.009c1.261,0,2.256,0.995,2.256,2.256c0,1.327-0.995,2.256-2.256,2.256
	c-1.294,0-2.256-0.929-2.256-2.256C175.214,23.004,176.176,22.009,177.47,22.009 M179.427,45.529c0,0.298-0.231,0.53-0.53,0.53
	h-2.887c-0.298,0-0.53-0.232-0.53-0.53V30.003c0-0.298,0.232-0.53,0.53-0.53h2.887c0.299,0,0.53,0.232,0.53,0.53V45.529z"/>
<path fill="#FFFFFF" d="M184.058,32.857c-0.299,0-0.531-0.232-0.531-0.531v-2.322c0-0.298,0.232-0.53,0.531-0.53h1.261l0.266-2.754
	c0.033-0.298,0.298-0.53,0.597-0.53h2.555c0.298,0,0.53,0.232,0.53,0.53v2.754h2.72c0.3,0,0.531,0.232,0.531,0.53v2.322
	c0,0.299-0.231,0.531-0.531,0.531h-2.72v8.559c0,0.829,0.1,1.592,1.193,1.525c0.3-0.033,0.896-0.166,1.826-0.364
	c0.297-0.066,0.563,0.099,0.629,0.397l0.432,2.023c0.066,0.299-0.133,0.598-0.432,0.664c-1.758,0.497-3.217,0.597-3.848,0.597
	c-3.417,0-3.748-3.185-3.748-4.312v-9.089H184.058z"/>
</svg>
